<svg xmlns="http://www.w3.org/2000/svg" xmlns:xlink="http://www.w3.org/1999/xlink" width="1920" zoomAndPan="magnify" viewBox="0 0 1440 809.999993" height="1080" preserveAspectRatio="xMidYMid meet" version="1.2"><defs><clipPath id="1703256a96"><path d="M 854.710938 261 L 969.460938 261 L 969.460938 288.457031 L 854.710938 288.457031 Z M 854.710938 261 "/></clipPath><clipPath id="0e4e5769b0"><path d="M 866 237.457031 L 887 237.457031 L 887 250 L 866 250 Z M 866 237.457031 "/></clipPath></defs><g id="deaf83ebf0"><rect x="0" width="1440" y="0" height="809.999993" style="fill:#ffffff;fill-opacity:1;stroke:none;"/><rect x="0" width="1440" y="0" height="809.999993" style="fill:#ffffff;fill-opacity:1;stroke:none;"/><g style="fill:#0277b6;fill-opacity:1;"><g transform="translate(329.964761, 440.436672)"><path style="stroke:none" d="M 45.28125 -141.21875 L 90.15625 -34.3125 L 90.953125 -34.3125 L 135.4375 -141.21875 L 163.96875 -141.21875 L 163.96875 0 L 144.8125 0 L 144.8125 -116.09375 L 144.421875 -116.09375 L 96.75 0 L 83.96875 0 L 36.296875 -116.09375 L 35.90625 -116.09375 L 35.90625 0 L 16.75 0 L 16.75 -141.21875 Z M 45.28125 -141.21875 "/></g></g><g style="fill:#0277b6;fill-opacity:1;"><g transform="translate(527.988711, 440.436672)"><path style="stroke:none" d="M 82.984375 -144.8125 C 92.953125 -144.8125 102.289062 -142.945312 111 -139.21875 C 119.707031 -135.5 126.859375 -130.050781 132.453125 -122.875 L 116.484375 -110.703125 C 107.847656 -121.472656 96.476562 -126.859375 82.375 -126.859375 C 67.082031 -126.859375 54.484375 -121.40625 44.578125 -110.5 C 34.671875 -99.601562 29.71875 -85.910156 29.71875 -69.421875 C 29.71875 -53.460938 34.601562 -40.296875 44.375 -29.921875 C 54.15625 -19.546875 66.820312 -14.359375 82.375 -14.359375 C 97.9375 -14.359375 110.238281 -20.675781 119.28125 -33.3125 L 135.4375 -21.140625 C 129.851562 -13.691406 122.40625 -7.707031 113.09375 -3.1875 C 103.789062 1.332031 93.421875 3.59375 81.984375 3.59375 C 68.421875 3.59375 56.117188 0.300781 45.078125 -6.28125 C 34.046875 -12.863281 25.335938 -21.90625 18.953125 -33.40625 C 12.566406 -44.914062 9.375 -56.984375 9.375 -69.609375 C 9.375 -91.421875 16.222656 -109.40625 29.921875 -123.5625 C 43.617188 -137.726562 61.304688 -144.8125 82.984375 -144.8125 Z M 82.984375 -144.8125 "/></g></g><g style="fill:#0277b6;fill-opacity:1;"><g transform="translate(685.731149, 440.436672)"><path style="stroke:none" d="M 82.984375 -144.8125 C 92.953125 -144.8125 102.289062 -142.945312 111 -139.21875 C 119.707031 -135.5 126.859375 -130.050781 132.453125 -122.875 L 116.484375 -110.703125 C 107.847656 -121.472656 96.476562 -126.859375 82.375 -126.859375 C 67.082031 -126.859375 54.484375 -121.40625 44.578125 -110.5 C 34.671875 -99.601562 29.71875 -85.910156 29.71875 -69.421875 C 29.71875 -53.460938 34.601562 -40.296875 44.375 -29.921875 C 54.15625 -19.546875 66.820312 -14.359375 82.375 -14.359375 C 97.9375 -14.359375 110.238281 -20.675781 119.28125 -33.3125 L 135.4375 -21.140625 C 129.851562 -13.691406 122.40625 -7.707031 113.09375 -3.1875 C 103.789062 1.332031 93.421875 3.59375 81.984375 3.59375 C 68.421875 3.59375 56.117188 0.300781 45.078125 -6.28125 C 34.046875 -12.863281 25.335938 -21.90625 18.953125 -33.40625 C 12.566406 -44.914062 9.375 -56.984375 9.375 -69.609375 C 9.375 -91.421875 16.222656 -109.40625 29.921875 -123.5625 C 43.617188 -137.726562 61.304688 -144.8125 82.984375 -144.8125 Z M 82.984375 -144.8125 "/></g></g><g style="fill:#0277b6;fill-opacity:1;"><g transform="translate(843.473587, 440.436672)"><path style="stroke:none" d="M 109.3125 -141.21875 L 109.3125 -123.265625 L 37.296875 -123.265625 L 37.296875 -81.1875 L 104.328125 -81.1875 L 104.328125 -63.234375 L 37.296875 -63.234375 L 37.296875 -17.953125 L 112.90625 -17.953125 L 112.90625 0 L 18.15625 0 L 18.15625 -141.21875 Z M 109.3125 -141.21875 "/></g></g><g style="fill:#0277b6;fill-opacity:1;"><g transform="translate(982.670601, 440.436672)"><path style="stroke:none" d="M 65.21875 -141.21875 C 80.25 -141.21875 93.28125 -138.125 104.3125 -131.9375 C 115.351562 -125.757812 123.800781 -117.285156 129.65625 -106.515625 C 135.507812 -95.742188 138.4375 -83.773438 138.4375 -70.609375 C 138.4375 -57.441406 135.175781 -45.4375 128.65625 -34.59375 C 122.144531 -23.757812 113.035156 -15.285156 101.328125 -9.171875 C 89.628906 -3.054688 76.597656 0 62.234375 0 L 14.953125 0 L 14.953125 -141.21875 Z M 59.25 -17.953125 C 70.019531 -17.953125 79.890625 -20.046875 88.859375 -24.234375 C 97.835938 -28.421875 104.953125 -34.4375 110.203125 -42.28125 C 115.453125 -50.132812 118.078125 -59.578125 118.078125 -70.609375 C 118.078125 -86.566406 113.125 -99.332031 103.21875 -108.90625 C 93.3125 -118.476562 80.179688 -123.265625 63.828125 -123.265625 L 34.109375 -123.265625 L 34.109375 -17.953125 Z M 59.25 -17.953125 "/></g></g><g clip-rule="nonzero" clip-path="url(#1703256a96)"><path style=" stroke:none;fill-rule:nonzero;fill:#0277b6;fill-opacity:1;" d="M 930.675781 277.679688 C 929.882812 277.679688 929.238281 277.035156 929.238281 276.242188 C 929.238281 275.449219 929.882812 274.808594 930.675781 274.808594 C 931.46875 274.808594 932.109375 275.449219 932.109375 276.242188 C 932.109375 277.035156 931.46875 277.679688 930.675781 277.679688 Z M 922.417969 277.679688 C 921.625 277.679688 920.984375 277.035156 920.984375 276.242188 C 920.984375 275.449219 921.625 274.808594 922.417969 274.808594 C 923.214844 274.808594 923.855469 275.449219 923.855469 276.242188 C 923.855469 277.035156 923.214844 277.679688 922.417969 277.679688 Z M 914.164062 277.679688 C 913.371094 277.679688 912.730469 277.035156 912.730469 276.242188 C 912.730469 275.449219 913.371094 274.808594 914.164062 274.808594 C 914.957031 274.808594 915.597656 275.449219 915.597656 276.242188 C 915.597656 277.035156 914.957031 277.679688 914.164062 277.679688 Z M 905.910156 277.679688 C 905.117188 277.679688 904.472656 277.035156 904.472656 276.242188 C 904.472656 275.449219 905.117188 274.808594 905.910156 274.808594 C 906.703125 274.808594 907.34375 275.449219 907.34375 276.242188 C 907.34375 277.035156 906.703125 277.679688 905.910156 277.679688 Z M 897.652344 277.679688 C 896.859375 277.679688 896.21875 277.035156 896.21875 276.242188 C 896.21875 275.449219 896.859375 274.808594 897.652344 274.808594 C 898.449219 274.808594 899.089844 275.449219 899.089844 276.242188 C 899.089844 277.035156 898.449219 277.679688 897.652344 277.679688 Z M 889.398438 277.679688 C 888.605469 277.679688 887.964844 277.035156 887.964844 276.242188 C 887.964844 275.449219 888.605469 274.808594 889.398438 274.808594 C 890.191406 274.808594 890.832031 275.449219 890.832031 276.242188 C 890.832031 277.035156 890.191406 277.679688 889.398438 277.679688 Z M 958.214844 268.191406 L 958.214844 265.726562 L 968.574219 265.726562 C 968.992188 264.441406 969.1875 263.632812 969.1875 263.632812 C 969.457031 262.257812 968.527344 261.136719 967.128906 261.136719 C 967.128906 261.136719 948.371094 261.136719 942.117188 261.136719 C 940.683594 261.136719 940.070312 261.902344 939.765625 262.613281 C 938.886719 264.652344 936.992188 268.113281 935.925781 269.808594 C 934.457031 272.152344 929.5625 271.695312 904.417969 272.011719 C 889.847656 272.195312 884.152344 272.351562 880.351562 272.25 C 878.324219 272.199219 877.269531 271.988281 876.867188 271.363281 C 876.53125 270.839844 876.527344 270.238281 876.433594 269.363281 C 876.1875 267.1875 876.121094 266.457031 876.121094 266.457031 C 875.992188 265.0625 874.738281 263.921875 873.339844 263.921875 L 857.449219 263.921875 C 856.050781 263.921875 854.710938 264.75 854.777344 266.132812 C 854.820312 267.011719 854.902344 267.800781 856.015625 269.808594 C 857.738281 272.90625 859.519531 272.96875 860.15625 280.179688 C 860.363281 282.53125 860.503906 284.117188 860.597656 285.183594 C 860.792969 287.390625 862.089844 287.742188 862.886719 287.867188 C 863.757812 288.003906 864.675781 288.089844 865.410156 288.089844 C 865.410156 288.089844 928.605469 288.089844 939.113281 288.089844 C 949.617188 288.089844 952.445312 287.175781 959.125 281.253906 C 963.480469 277.390625 966.183594 271.996094 967.679688 268.191406 L 958.214844 268.191406 "/></g><path style=" stroke:none;fill-rule:nonzero;fill:#0277b6;fill-opacity:1;" d="M 938.960938 260.164062 L 938.871094 258.894531 L 948.4375 258.894531 L 948.4375 255.796875 L 935.542969 255.796875 L 935.542969 264.003906 L 937.179688 264.003906 C 938.089844 262.265625 938.84375 260.6875 938.960938 260.164062 "/><path style=" stroke:none;fill-rule:nonzero;fill:#0277b6;fill-opacity:1;" d="M 934.023438 245.957031 L 921.128906 245.957031 L 921.128906 254.167969 L 934.023438 254.167969 L 934.023438 245.957031 "/><path style=" stroke:none;fill-rule:nonzero;fill:#0277b6;fill-opacity:1;" d="M 936.300781 265.632812 L 935.542969 265.632812 L 935.542969 266.984375 C 935.789062 266.554688 936.046875 266.097656 936.300781 265.632812 "/><path style=" stroke:none;fill-rule:nonzero;fill:#0277b6;fill-opacity:1;" d="M 962.847656 258.894531 L 962.847656 255.796875 L 949.957031 255.796875 L 949.957031 258.894531 L 962.847656 258.894531 "/><path style=" stroke:none;fill-rule:nonzero;fill:#0277b6;fill-opacity:1;" d="M 948.4375 245.957031 L 935.542969 245.957031 L 935.542969 254.167969 L 948.4375 254.167969 L 948.4375 245.957031 "/><path style=" stroke:none;fill-rule:nonzero;fill:#0277b6;fill-opacity:1;" d="M 919.609375 255.796875 L 906.71875 255.796875 L 906.71875 264.003906 L 919.609375 264.003906 L 919.609375 255.796875 "/><path style=" stroke:none;fill-rule:nonzero;fill:#0277b6;fill-opacity:1;" d="M 912.136719 269.679688 C 914.929688 269.648438 917.402344 269.621094 919.609375 269.589844 L 919.609375 265.632812 L 906.71875 265.632812 L 906.71875 269.742188 L 912.136719 269.679688 "/><path style=" stroke:none;fill-rule:nonzero;fill:#0277b6;fill-opacity:1;" d="M 934.023438 268.695312 L 934.023438 265.632812 L 921.128906 265.632812 L 921.128906 269.566406 C 928.5 269.445312 932.421875 269.257812 934.023438 268.695312 "/><path style=" stroke:none;fill-rule:nonzero;fill:#0277b6;fill-opacity:1;" d="M 934.023438 255.796875 L 921.128906 255.796875 L 921.128906 264.003906 L 934.023438 264.003906 L 934.023438 255.796875 "/><g clip-rule="nonzero" clip-path="url(#0e4e5769b0)"><path style=" stroke:none;fill-rule:nonzero;fill:#0277b6;fill-opacity:1;" d="M 880.175781 242.132812 L 876.675781 242.132812 L 876.675781 240.21875 L 880.175781 240.21875 Z M 874.855469 242.132812 L 871.355469 242.132812 L 871.355469 240.21875 L 874.855469 240.21875 Z M 882.140625 243.703125 L 882.140625 240.21875 L 886.335938 240.21875 L 886.335938 240.003906 C 886.335938 238.601562 885.1875 237.457031 883.789062 237.457031 L 869.402344 237.457031 C 868.003906 237.457031 866.855469 238.601562 866.855469 240.003906 L 866.855469 240.21875 L 869.535156 240.21875 L 869.535156 242.132812 L 866.855469 242.132812 L 866.855469 249.714844 L 886.335938 249.714844 L 886.335938 243.703125 L 882.140625 243.703125 "/></g><path style=" stroke:none;fill-rule:nonzero;fill:#0277b6;fill-opacity:1;" d="M 887.476562 256.558594 L 883.105469 256.558594 L 883.105469 254.167969 L 887.476562 254.167969 Z M 880.828125 256.558594 L 876.457031 256.558594 L 876.457031 254.167969 L 880.828125 254.167969 Z M 874.179688 256.558594 L 869.804688 256.558594 L 869.804688 254.167969 L 874.179688 254.167969 Z M 889.933594 258.523438 L 889.933594 254.167969 L 894.984375 254.167969 C 894.980469 252.765625 893.835938 251.621094 892.4375 251.621094 L 864.242188 251.621094 C 862.839844 251.621094 861.695312 252.765625 861.691406 254.167969 L 867.226562 254.167969 L 867.226562 256.558594 L 861.691406 256.558594 L 861.691406 259.132812 C 861.691406 260.535156 862.839844 261.679688 864.242188 261.679688 L 875.308594 261.679688 C 877.257812 261.671875 877.835938 262.011719 877.972656 262.953125 C 878.070312 263.589844 878.074219 263.980469 878.210938 265.375 C 878.210938 265.375 878.304688 266.378906 878.429688 267.488281 C 878.550781 268.597656 879.167969 269.5 879.964844 269.554688 C 881.476562 269.65625 882.671875 269.765625 884.070312 269.765625 L 892.4375 269.765625 C 893.835938 269.765625 894.984375 268.617188 894.984375 267.21875 L 894.984375 258.523438 L 889.933594 258.523438 "/></g></svg>